<mxfile host="app.diagrams.net" modified="2023-10-11T08:45:34.805Z" agent="Mozilla/5.0 (Windows NT 10.0; Win64; x64) AppleWebKit/537.36 (KHTML, like Gecko) Chrome/117.0.0.0 Safari/537.36" etag="6pHmwZ3qi02lQ7IPE8bZ" version="22.0.4" type="github">
  <diagram id="C5RBs43oDa-KdzZeNtuy" name="Page-1">
    <mxGraphModel dx="880" dy="446" grid="1" gridSize="10" guides="1" tooltips="1" connect="1" arrows="1" fold="1" page="1" pageScale="1" pageWidth="827" pageHeight="1169" math="0" shadow="0">
      <root>
        <mxCell id="WIyWlLk6GJQsqaUBKTNV-0" />
        <mxCell id="WIyWlLk6GJQsqaUBKTNV-1" parent="WIyWlLk6GJQsqaUBKTNV-0" />
        <mxCell id="l5Mfqf-dvI3yoC0sI8a7-5" style="edgeStyle=orthogonalEdgeStyle;rounded=0;orthogonalLoop=1;jettySize=auto;html=1;entryX=0;entryY=0.5;entryDx=0;entryDy=0;" edge="1" parent="WIyWlLk6GJQsqaUBKTNV-1" source="l5Mfqf-dvI3yoC0sI8a7-0" target="l5Mfqf-dvI3yoC0sI8a7-1">
          <mxGeometry relative="1" as="geometry" />
        </mxCell>
        <mxCell id="l5Mfqf-dvI3yoC0sI8a7-0" value="开始" style="ellipse;whiteSpace=wrap;html=1;aspect=fixed;" vertex="1" parent="WIyWlLk6GJQsqaUBKTNV-1">
          <mxGeometry y="40" width="80" height="80" as="geometry" />
        </mxCell>
        <mxCell id="l5Mfqf-dvI3yoC0sI8a7-6" style="edgeStyle=orthogonalEdgeStyle;rounded=0;orthogonalLoop=1;jettySize=auto;html=1;entryX=0;entryY=0.5;entryDx=0;entryDy=0;" edge="1" parent="WIyWlLk6GJQsqaUBKTNV-1" source="l5Mfqf-dvI3yoC0sI8a7-1" target="l5Mfqf-dvI3yoC0sI8a7-2">
          <mxGeometry relative="1" as="geometry" />
        </mxCell>
        <mxCell id="l5Mfqf-dvI3yoC0sI8a7-1" value="&lt;p class=&quot;MsoNormal&quot;&gt;分行部门团队（主管、副主管）（上一级选择一人&lt;/p&gt;" style="rounded=0;whiteSpace=wrap;html=1;" vertex="1" parent="WIyWlLk6GJQsqaUBKTNV-1">
          <mxGeometry x="160" y="40" width="120" height="80" as="geometry" />
        </mxCell>
        <mxCell id="l5Mfqf-dvI3yoC0sI8a7-7" style="edgeStyle=orthogonalEdgeStyle;rounded=0;orthogonalLoop=1;jettySize=auto;html=1;entryX=0;entryY=0.5;entryDx=0;entryDy=0;" edge="1" parent="WIyWlLk6GJQsqaUBKTNV-1" source="l5Mfqf-dvI3yoC0sI8a7-2" target="l5Mfqf-dvI3yoC0sI8a7-3">
          <mxGeometry relative="1" as="geometry" />
        </mxCell>
        <mxCell id="l5Mfqf-dvI3yoC0sI8a7-2" value="&lt;p class=&quot;MsoNormal&quot;&gt;分行条线部门印章专管人（上一级选一人）&lt;/p&gt;" style="rounded=0;whiteSpace=wrap;html=1;" vertex="1" parent="WIyWlLk6GJQsqaUBKTNV-1">
          <mxGeometry x="360" y="40" width="120" height="80" as="geometry" />
        </mxCell>
        <mxCell id="l5Mfqf-dvI3yoC0sI8a7-8" style="edgeStyle=orthogonalEdgeStyle;rounded=0;orthogonalLoop=1;jettySize=auto;html=1;entryX=0.5;entryY=0;entryDx=0;entryDy=0;" edge="1" parent="WIyWlLk6GJQsqaUBKTNV-1" source="l5Mfqf-dvI3yoC0sI8a7-3" target="l5Mfqf-dvI3yoC0sI8a7-4">
          <mxGeometry relative="1" as="geometry" />
        </mxCell>
        <mxCell id="l5Mfqf-dvI3yoC0sI8a7-3" value="&lt;p class=&quot;MsoNormal&quot;&gt;分行条线部门总经理室成员（上一级选择一人）&lt;/p&gt;" style="rounded=0;whiteSpace=wrap;html=1;" vertex="1" parent="WIyWlLk6GJQsqaUBKTNV-1">
          <mxGeometry x="560" y="40" width="120" height="80" as="geometry" />
        </mxCell>
        <mxCell id="l5Mfqf-dvI3yoC0sI8a7-10" style="edgeStyle=orthogonalEdgeStyle;rounded=0;orthogonalLoop=1;jettySize=auto;html=1;entryX=1;entryY=0.5;entryDx=0;entryDy=0;" edge="1" parent="WIyWlLk6GJQsqaUBKTNV-1" source="l5Mfqf-dvI3yoC0sI8a7-4" target="l5Mfqf-dvI3yoC0sI8a7-9">
          <mxGeometry relative="1" as="geometry" />
        </mxCell>
        <mxCell id="l5Mfqf-dvI3yoC0sI8a7-4" value="&lt;p class=&quot;MsoNormal&quot;&gt;分行条线部门印章专管人&lt;br&gt;&lt;/p&gt;" style="rounded=0;whiteSpace=wrap;html=1;" vertex="1" parent="WIyWlLk6GJQsqaUBKTNV-1">
          <mxGeometry x="560" y="160" width="120" height="80" as="geometry" />
        </mxCell>
        <mxCell id="l5Mfqf-dvI3yoC0sI8a7-12" style="edgeStyle=orthogonalEdgeStyle;rounded=0;orthogonalLoop=1;jettySize=auto;html=1;entryX=0.5;entryY=0;entryDx=0;entryDy=0;" edge="1" parent="WIyWlLk6GJQsqaUBKTNV-1" source="l5Mfqf-dvI3yoC0sI8a7-9" target="l5Mfqf-dvI3yoC0sI8a7-11">
          <mxGeometry relative="1" as="geometry" />
        </mxCell>
        <mxCell id="l5Mfqf-dvI3yoC0sI8a7-15" style="edgeStyle=orthogonalEdgeStyle;rounded=0;orthogonalLoop=1;jettySize=auto;html=1;entryX=1;entryY=0.5;entryDx=0;entryDy=0;" edge="1" parent="WIyWlLk6GJQsqaUBKTNV-1" source="l5Mfqf-dvI3yoC0sI8a7-9" target="l5Mfqf-dvI3yoC0sI8a7-14">
          <mxGeometry relative="1" as="geometry" />
        </mxCell>
        <mxCell id="l5Mfqf-dvI3yoC0sI8a7-9" value="&lt;p class=&quot;MsoNormal&quot;&gt;&lt;font face=&quot;宋体&quot;&gt;是&lt;/font&gt;&lt;font face=&quot;宋体&quot;&gt;/否） 分行条线部门总经理室其他成员&lt;/font&gt;&lt;/p&gt;" style="rhombus;whiteSpace=wrap;html=1;" vertex="1" parent="WIyWlLk6GJQsqaUBKTNV-1">
          <mxGeometry x="360" y="160" width="120" height="80" as="geometry" />
        </mxCell>
        <mxCell id="l5Mfqf-dvI3yoC0sI8a7-13" style="edgeStyle=orthogonalEdgeStyle;rounded=0;orthogonalLoop=1;jettySize=auto;html=1;" edge="1" parent="WIyWlLk6GJQsqaUBKTNV-1" source="l5Mfqf-dvI3yoC0sI8a7-11" target="l5Mfqf-dvI3yoC0sI8a7-4">
          <mxGeometry relative="1" as="geometry" />
        </mxCell>
        <mxCell id="l5Mfqf-dvI3yoC0sI8a7-11" value="&lt;font style=&quot;border-color: var(--border-color);&quot; face=&quot;宋体&quot;&gt;分行条线部门总经理室其他成员（上一级选一人）&lt;/font&gt;" style="rounded=0;whiteSpace=wrap;html=1;" vertex="1" parent="WIyWlLk6GJQsqaUBKTNV-1">
          <mxGeometry x="360" y="280" width="120" height="80" as="geometry" />
        </mxCell>
        <mxCell id="l5Mfqf-dvI3yoC0sI8a7-20" style="edgeStyle=orthogonalEdgeStyle;rounded=0;orthogonalLoop=1;jettySize=auto;html=1;entryX=0.5;entryY=0;entryDx=0;entryDy=0;" edge="1" parent="WIyWlLk6GJQsqaUBKTNV-1" source="l5Mfqf-dvI3yoC0sI8a7-14" target="l5Mfqf-dvI3yoC0sI8a7-16">
          <mxGeometry relative="1" as="geometry" />
        </mxCell>
        <mxCell id="l5Mfqf-dvI3yoC0sI8a7-21" value="是" style="edgeLabel;html=1;align=center;verticalAlign=middle;resizable=0;points=[];" vertex="1" connectable="0" parent="l5Mfqf-dvI3yoC0sI8a7-20">
          <mxGeometry x="-0.25" y="-3" relative="1" as="geometry">
            <mxPoint as="offset" />
          </mxGeometry>
        </mxCell>
        <mxCell id="l5Mfqf-dvI3yoC0sI8a7-23" style="edgeStyle=orthogonalEdgeStyle;rounded=0;orthogonalLoop=1;jettySize=auto;html=1;entryX=1;entryY=0.5;entryDx=0;entryDy=0;" edge="1" parent="WIyWlLk6GJQsqaUBKTNV-1" source="l5Mfqf-dvI3yoC0sI8a7-14" target="l5Mfqf-dvI3yoC0sI8a7-22">
          <mxGeometry relative="1" as="geometry" />
        </mxCell>
        <mxCell id="l5Mfqf-dvI3yoC0sI8a7-24" value="否" style="edgeLabel;html=1;align=center;verticalAlign=middle;resizable=0;points=[];" vertex="1" connectable="0" parent="l5Mfqf-dvI3yoC0sI8a7-23">
          <mxGeometry x="-0.025" y="1" relative="1" as="geometry">
            <mxPoint as="offset" />
          </mxGeometry>
        </mxCell>
        <mxCell id="l5Mfqf-dvI3yoC0sI8a7-14" value="&lt;p class=&quot;MsoNormal&quot;&gt;&lt;font face=&quot;宋体&quot;&gt;（是&lt;/font&gt;&lt;font face=&quot;宋体&quot;&gt;/否）分行行领导&lt;/font&gt;&lt;/p&gt;" style="rhombus;whiteSpace=wrap;html=1;" vertex="1" parent="WIyWlLk6GJQsqaUBKTNV-1">
          <mxGeometry x="160" y="160" width="120" height="80" as="geometry" />
        </mxCell>
        <mxCell id="l5Mfqf-dvI3yoC0sI8a7-25" style="edgeStyle=orthogonalEdgeStyle;rounded=0;orthogonalLoop=1;jettySize=auto;html=1;" edge="1" parent="WIyWlLk6GJQsqaUBKTNV-1" source="l5Mfqf-dvI3yoC0sI8a7-16" target="l5Mfqf-dvI3yoC0sI8a7-22">
          <mxGeometry relative="1" as="geometry" />
        </mxCell>
        <mxCell id="l5Mfqf-dvI3yoC0sI8a7-16" value="&lt;p class=&quot;MsoNormal&quot;&gt;分行条线部门文书&lt;/p&gt;" style="rounded=0;whiteSpace=wrap;html=1;" vertex="1" parent="WIyWlLk6GJQsqaUBKTNV-1">
          <mxGeometry x="160" y="280" width="120" height="80" as="geometry" />
        </mxCell>
        <mxCell id="l5Mfqf-dvI3yoC0sI8a7-22" value="结束" style="ellipse;whiteSpace=wrap;html=1;aspect=fixed;" vertex="1" parent="WIyWlLk6GJQsqaUBKTNV-1">
          <mxGeometry y="160" width="80" height="80" as="geometry" />
        </mxCell>
      </root>
    </mxGraphModel>
  </diagram>
</mxfile>
